<svg width="18" height="18" viewBox="0 0 18 18" xmlns="http://www.w3.org/2000/svg" fill-rule="evenodd" clip-rule="evenodd" stroke-linejoin="round" stroke-miterlimit="1.414">
    <path d="M17.915 2.82a.604.604 0 0 1 .087.259c0 .087-.044.174-.087.26L7.141 17.186c-.087.086-.217.259-.39.259-.173 0-.346-.13-.433-.216-.086-.087-6.101-5.885-6.101-5.885l-.13-.13a.607.607 0 0 1-.087-.26c0-.087.044-.13.087-.217l.086-.086c.606-.65 1.817-1.904 1.904-1.991.087-.086.173-.259.346-.259s.346.173.433.259c.086.087 3.462 3.375 3.462 3.375L14.972.914c.086-.086.173-.086.259-.086a.83.83 0 0 1 .304.086l2.38 1.906z" fill="#5dce33" fill-rule="nonzero"/>
</svg>
