<svg width="36" height="31" viewBox="0 0 36 31" xmlns="http://www.w3.org/2000/svg" fill-rule="evenodd" clip-rule="evenodd" stroke-linejoin="round" stroke-miterlimit="1.414">
    <path d="M1.107 10.735a.511.511 0 0 1 .03-.828L16.558.264a.615.615 0 0 1 .377-.063c.075.023.075.023.145.058l16.148 9.642a.544.544 0 0 1 .225.332.57.57 0 0 1 .018.118v14.681l.006.003c.513.277.987.912 1.432 1.444.353.423.633.776.497 1.814-.227 1.736-2.924 2.59-4.25 1.193-.59-.622-.591-1.971-.591-1.971.116-1.007.988-1.703 1.906-2.385V11.289L17.109 21.996c-.284.167-.328.149-.58-.006L6.126 14.397v7.856c2.189 3.868 7.698 5.464 12.05 5.262 3.71-.171 7.772-1.731 9.334-5.206l.009-7.569 1.002-.698v8.339c-.023.38-.129.412-.21.57-2.021 3.943-7.202 5.747-11.978 5.572-4.253-.156-9.039-1.968-11.142-5.895 0 0-.051-.009-.065-.247v-8.714l-4.019-2.932zm31.75 15.375c-1.087.959-1.618 2.057-.954 2.71.843.827 2.524.572 2.54-1.095.007-.647-.808-1.167-1.466-1.718l-.12.103zM2.294 10.363L16.83 20.972l15.22-10.609-15.221-9.089-14.535 9.089z" fill="#2e3134"/>
</svg>
