<?xml version="1.0" encoding="UTF-8" standalone="no"?><!DOCTYPE svg PUBLIC "-//W3C//DTD SVG 1.1//EN" "http://www.w3.org/Graphics/SVG/1.1/DTD/svg11.dtd"><svg width="100%" height="100%" viewBox="0 0 53 32" version="1.1" xmlns="http://www.w3.org/2000/svg" xmlns:xlink="http://www.w3.org/1999/xlink" xml:space="preserve" xmlns:serif="http://www.serif.com/" style="fill-rule:evenodd;clip-rule:evenodd;stroke-linejoin:round;stroke-miterlimit:1.41421;"><g><path id="bg" d="M52.71,15.712c0,-8.555 -6.945,-15.5 -15.5,-15.5l-20,0c-8.555,0 -15.5,6.945 -15.5,15.5c0,8.555 6.945,15.5 15.5,15.5l20,0c8.555,0 15.5,-6.945 15.5,-15.5Z" style="fill:#fff;"/><path d="M37.41,0.213l0.2,0.004l0.199,0.006l0.198,0.009l0.198,0.011l0.197,0.014l0.196,0.016l0.196,0.019l0.195,0.021l0.194,0.024l0.194,0.026l0.192,0.028l0.192,0.03l0.191,0.033l0.191,0.036l0.189,0.037l0.189,0.04l0.188,0.042l0.187,0.045l0.186,0.046l0.185,0.049l0.184,0.051l0.184,0.054l0.182,0.055l0.182,0.058l0.18,0.06l0.18,0.062l0.178,0.064l0.178,0.066l0.176,0.069l0.176,0.07l0.174,0.073l0.173,0.074l0.173,0.077l0.171,0.079l0.17,0.08l0.168,0.083l0.168,0.085l0.167,0.086l0.165,0.089l0.164,0.09l0.163,0.093l0.162,0.094l0.16,0.096l0.159,0.098l0.158,0.1l0.157,0.102l0.155,0.104l0.154,0.105l0.152,0.107l0.152,0.109l0.15,0.111l0.148,0.113l0.147,0.114l0.146,0.116l0.144,0.117l0.143,0.12l0.141,0.121l0.14,0.122l0.139,0.125l0.137,0.126l0.135,0.127l0.134,0.129l0.132,0.131l0.131,0.132l0.129,0.134l0.128,0.136l0.126,0.136l0.124,0.139l0.123,0.14l0.121,0.141l0.119,0.143l0.118,0.144l0.115,0.146l0.115,0.147l0.112,0.149l0.111,0.149l0.109,0.152l0.107,0.152l0.105,0.154l0.104,0.156l0.102,0.156l0.1,0.158l0.098,0.159l0.096,0.161l0.094,0.161l0.093,0.163l0.09,0.164l0.089,0.166l0.086,0.166l0.085,0.168l0.083,0.169l0.08,0.17l0.079,0.171l0.077,0.172l0.074,0.173l0.073,0.175l0.07,0.175l0.069,0.176l0.066,0.178l0.064,0.178l0.062,0.18l0.06,0.18l0.058,0.182l0.055,0.182l0.054,0.184l0.051,0.184l0.049,0.185l0.047,0.186l0.044,0.187l0.042,0.188l0.04,0.189l0.038,0.189l0.035,0.191l0.033,0.191l0.03,0.192l0.029,0.193l0.026,0.193l0.023,0.194l0.021,0.195l0.019,0.196l0.016,0.196l0.014,0.197l0.011,0.198l0.009,0.198l0.006,0.199l0.004,0.2l0.001,0.2l-0.001,0.2l-0.004,0.2l-0.006,0.199l-0.009,0.198l-0.011,0.198l-0.014,0.197l-0.016,0.196l-0.019,0.196l-0.021,0.195l-0.023,0.194l-0.026,0.193l-0.029,0.193l-0.03,0.192l-0.033,0.191l-0.035,0.191l-0.038,0.189l-0.04,0.189l-0.042,0.188l-0.044,0.187l-0.047,0.186l-0.049,0.185l-0.051,0.184l-0.054,0.184l-0.055,0.182l-0.058,0.182l-0.06,0.18l-0.062,0.18l-0.064,0.178l-0.066,0.178l-0.069,0.176l-0.07,0.176l-0.073,0.174l-0.074,0.173l-0.077,0.172l-0.079,0.171l-0.08,0.17l-0.083,0.169l-0.085,0.168l-0.086,0.166l-0.089,0.166l-0.09,0.164l-0.093,0.163l-0.094,0.161l-0.096,0.161l-0.098,0.159l-0.1,0.158l-0.102,0.156l-0.104,0.156l-0.105,0.154l-0.107,0.152l-0.109,0.152l-0.111,0.149l-0.112,0.149l-0.115,0.147l-0.115,0.146l-0.118,0.144l-0.119,0.143l-0.121,0.141l-0.123,0.14l-0.124,0.139l-0.126,0.137l-0.128,0.135l-0.129,0.134l-0.131,0.132l-0.132,0.131l-0.134,0.129l-0.135,0.127l-0.137,0.126l-0.139,0.125l-0.14,0.122l-0.141,0.121l-0.143,0.12l-0.144,0.117l-0.146,0.116l-0.147,0.115l-0.148,0.112l-0.15,0.111l-0.152,0.109l-0.152,0.107l-0.154,0.105l-0.155,0.104l-0.157,0.102l-0.158,0.1l-0.159,0.098l-0.16,0.096l-0.162,0.094l-0.163,0.093l-0.164,0.09l-0.165,0.089l-0.167,0.086l-0.168,0.085l-0.168,0.083l-0.17,0.08l-0.171,0.079l-0.173,0.077l-0.173,0.074l-0.174,0.073l-0.176,0.07l-0.176,0.069l-0.178,0.066l-0.178,0.064l-0.18,0.062l-0.18,0.06l-0.182,0.058l-0.182,0.055l-0.184,0.054l-0.184,0.051l-0.185,0.049l-0.186,0.046l-0.187,0.045l-0.188,0.042l-0.189,0.04l-0.189,0.037l-0.191,0.036l-0.191,0.033l-0.192,0.03l-0.192,0.029l-0.194,0.025l-0.194,0.024l-0.195,0.021l-0.196,0.019l-0.196,0.016l-0.197,0.014l-0.198,0.011l-0.198,0.009l-0.199,0.006l-0.2,0.004l-0.2,0.001l-20,0l-0.2,-0.001l-0.2,-0.004l-0.199,-0.006l-0.198,-0.009l-0.198,-0.011l-0.197,-0.014l-0.196,-0.016l-0.196,-0.019l-0.195,-0.021l-0.194,-0.024l-0.193,-0.025l-0.193,-0.029l-0.192,-0.03l-0.191,-0.033l-0.19,-0.036l-0.19,-0.037l-0.189,-0.04l-0.188,-0.042l-0.187,-0.045l-0.186,-0.046l-0.185,-0.049l-0.184,-0.051l-0.184,-0.054l-0.182,-0.055l-0.181,-0.058l-0.181,-0.06l-0.179,-0.062l-0.179,-0.064l-0.177,-0.066l-0.177,-0.069l-0.175,-0.07l-0.175,-0.073l-0.173,-0.074l-0.172,-0.077l-0.171,-0.079l-0.17,-0.08l-0.169,-0.083l-0.168,-0.085l-0.166,-0.086l-0.166,-0.089l-0.164,-0.09l-0.163,-0.093l-0.161,-0.094l-0.161,-0.096l-0.159,-0.098l-0.158,-0.1l-0.156,-0.102l-0.156,-0.104l-0.153,-0.105l-0.153,-0.107l-0.151,-0.109l-0.15,-0.111l-0.149,-0.112l-0.147,-0.115l-0.146,-0.116l-0.144,-0.117l-0.143,-0.12l-0.141,-0.121l-0.14,-0.122l-0.138,-0.125l-0.137,-0.126l-0.136,-0.127l-0.134,-0.129l-0.132,-0.131l-0.131,-0.132l-0.129,-0.134l-0.127,-0.135l-0.126,-0.137l-0.125,-0.139l-0.122,-0.14l-0.121,-0.141l-0.12,-0.143l-0.117,-0.144l-0.116,-0.146l-0.114,-0.147l-0.113,-0.149l-0.111,-0.149l-0.109,-0.152l-0.107,-0.152l-0.105,-0.154l-0.104,-0.156l-0.102,-0.156l-0.099,-0.158l-0.099,-0.159l-0.096,-0.161l-0.094,-0.161l-0.092,-0.163l-0.091,-0.164l-0.088,-0.166l-0.087,-0.166l-0.085,-0.168l-0.082,-0.169l-0.081,-0.17l-0.079,-0.171l-0.076,-0.172l-0.075,-0.173l-0.073,-0.174l-0.07,-0.176l-0.068,-0.176l-0.067,-0.178l-0.064,-0.178l-0.062,-0.18l-0.06,-0.18l-0.057,-0.182l-0.056,-0.182l-0.053,-0.184l-0.052,-0.184l-0.049,-0.185l-0.046,-0.186l-0.045,-0.187l-0.042,-0.188l-0.04,-0.189l-0.037,-0.189l-0.036,-0.191l-0.033,-0.191l-0.03,-0.192l-0.028,-0.193l-0.026,-0.193l-0.024,-0.194l-0.021,-0.195l-0.018,-0.196l-0.017,-0.196l-0.013,-0.197l-0.012,-0.198l-0.008,-0.198l-0.007,-0.199l-0.004,-0.2l-0.001,-0.2l0.001,-0.2l0.004,-0.2l0.007,-0.199l0.008,-0.198l0.012,-0.198l0.013,-0.197l0.017,-0.196l0.018,-0.196l0.021,-0.195l0.024,-0.194l0.026,-0.193l0.028,-0.193l0.03,-0.192l0.033,-0.191l0.036,-0.191l0.037,-0.189l0.04,-0.189l0.042,-0.188l0.045,-0.187l0.046,-0.186l0.049,-0.185l0.052,-0.184l0.053,-0.184l0.056,-0.182l0.057,-0.182l0.06,-0.18l0.062,-0.18l0.064,-0.178l0.067,-0.178l0.068,-0.176l0.07,-0.175l0.073,-0.175l0.075,-0.173l0.076,-0.172l0.079,-0.171l0.081,-0.17l0.082,-0.169l0.085,-0.168l0.087,-0.166l0.088,-0.166l0.091,-0.164l0.092,-0.163l0.094,-0.161l0.096,-0.161l0.099,-0.159l0.099,-0.158l0.102,-0.156l0.104,-0.156l0.105,-0.154l0.107,-0.152l0.109,-0.152l0.111,-0.149l0.113,-0.149l0.114,-0.147l0.116,-0.146l0.117,-0.144l0.12,-0.143l0.121,-0.141l0.122,-0.14l0.125,-0.139l0.126,-0.136l0.127,-0.136l0.129,-0.134l0.131,-0.132l0.132,-0.131l0.134,-0.129l0.136,-0.127l0.137,-0.126l0.138,-0.125l0.14,-0.122l0.141,-0.121l0.143,-0.12l0.144,-0.117l0.146,-0.116l0.147,-0.114l0.149,-0.113l0.15,-0.111l0.151,-0.109l0.153,-0.107l0.153,-0.105l0.156,-0.104l0.156,-0.102l0.158,-0.1l0.159,-0.098l0.161,-0.096l0.161,-0.094l0.163,-0.093l0.164,-0.09l0.166,-0.089l0.166,-0.086l0.168,-0.085l0.169,-0.083l0.17,-0.08l0.171,-0.079l0.172,-0.077l0.173,-0.074l0.175,-0.073l0.175,-0.07l0.177,-0.069l0.177,-0.066l0.179,-0.064l0.179,-0.062l0.181,-0.06l0.181,-0.058l0.182,-0.055l0.184,-0.054l0.184,-0.051l0.185,-0.049l0.186,-0.046l0.187,-0.045l0.188,-0.042l0.189,-0.04l0.19,-0.037l0.19,-0.036l0.191,-0.033l0.192,-0.03l0.193,-0.028l0.193,-0.026l0.194,-0.024l0.195,-0.021l0.196,-0.019l0.196,-0.016l0.197,-0.014l0.198,-0.011l0.198,-0.009l0.199,-0.006l0.2,-0.004l0.2,-0.001l20,0l0.2,0.001Zm-20.195,1.499l-0.186,0.001l-0.181,0.004l-0.179,0.005l-0.18,0.008l-0.179,0.011l-0.178,0.012l-0.177,0.015l-0.177,0.016l-0.176,0.019l-0.175,0.022l-0.175,0.023l-0.174,0.026l-0.173,0.027l-0.173,0.03l-0.172,0.032l-0.171,0.034l-0.17,0.036l-0.17,0.038l-0.168,0.04l-0.169,0.042l-0.167,0.044l-0.166,0.046l-0.165,0.048l-0.165,0.051l-0.164,0.052l-0.163,0.054l-0.162,0.056l-0.161,0.058l-0.16,0.059l-0.159,0.062l-0.159,0.064l-0.157,0.065l-0.156,0.068l-0.156,0.069l-0.154,0.071l-0.154,0.073l-0.152,0.074l-0.152,0.077l-0.15,0.078l-0.149,0.08l-0.148,0.082l-0.148,0.083l-0.146,0.085l-0.144,0.087l-0.144,0.089l-0.143,0.09l-0.141,0.092l-0.141,0.094l-0.139,0.095l-0.138,0.097l-0.136,0.098l-0.136,0.1l-0.134,0.102l-0.133,0.103l-0.132,0.105l-0.13,0.106l-0.129,0.108l-0.128,0.109l-0.127,0.111l-0.125,0.113l-0.123,0.113l-0.122,0.116l-0.122,0.117l-0.119,0.118l-0.118,0.119l-0.117,0.121l-0.115,0.123l-0.114,0.123l-0.113,0.126l-0.11,0.126l-0.11,0.128l-0.108,0.129l-0.106,0.13l-0.105,0.132l-0.103,0.133l-0.102,0.134l-0.1,0.136l-0.098,0.136l-0.097,0.138l-0.095,0.139l-0.094,0.141l-0.092,0.141l-0.09,0.143l-0.089,0.144l-0.087,0.144l-0.085,0.146l-0.083,0.148l-0.082,0.148l-0.08,0.149l-0.078,0.15l-0.076,0.151l-0.075,0.153l-0.073,0.154l-0.071,0.154l-0.069,0.155l-0.068,0.157l-0.065,0.157l-0.064,0.158l-0.061,0.16l-0.06,0.16l-0.058,0.161l-0.056,0.162l-0.054,0.163l-0.052,0.164l-0.05,0.165l-0.049,0.165l-0.046,0.166l-0.044,0.167l-0.042,0.168l-0.04,0.169l-0.038,0.169l-0.036,0.171l-0.034,0.171l-0.032,0.172l-0.03,0.172l-0.027,0.174l-0.026,0.174l-0.023,0.174l-0.021,0.176l-0.019,0.176l-0.017,0.177l-0.015,0.177l-0.012,0.178l-0.011,0.179l-0.007,0.179l-0.006,0.18l-0.004,0.181l-0.001,0.181l0.001,0.181l0.004,0.181l0.006,0.18l0.007,0.179l0.011,0.179l0.012,0.178l0.015,0.177l0.017,0.177l0.019,0.176l0.021,0.176l0.023,0.174l0.026,0.174l0.027,0.174l0.03,0.172l0.032,0.172l0.034,0.171l0.036,0.171l0.038,0.169l0.04,0.169l0.042,0.168l0.044,0.167l0.046,0.166l0.049,0.166l0.05,0.164l0.052,0.164l0.054,0.163l0.056,0.162l0.058,0.161l0.06,0.16l0.061,0.16l0.064,0.158l0.065,0.157l0.068,0.157l0.069,0.155l0.071,0.154l0.073,0.154l0.075,0.153l0.076,0.151l0.078,0.15l0.08,0.149l0.082,0.149l0.083,0.147l0.085,0.146l0.087,0.145l0.089,0.143l0.09,0.143l0.092,0.141l0.094,0.141l0.095,0.139l0.097,0.138l0.098,0.137l0.1,0.135l0.102,0.134l0.103,0.133l0.105,0.132l0.106,0.13l0.108,0.129l0.11,0.128l0.111,0.127l0.112,0.125l0.114,0.123l0.115,0.123l0.117,0.121l0.118,0.119l0.119,0.118l0.121,0.117l0.123,0.116l0.124,0.113l0.124,0.113l0.127,0.111l0.128,0.109l0.129,0.108l0.131,0.106l0.131,0.105l0.133,0.103l0.134,0.102l0.136,0.1l0.136,0.098l0.138,0.097l0.139,0.096l0.141,0.093l0.141,0.092l0.143,0.09l0.144,0.089l0.144,0.087l0.146,0.085l0.147,0.083l0.149,0.082l0.149,0.08l0.15,0.078l0.152,0.077l0.152,0.074l0.154,0.073l0.154,0.071l0.156,0.069l0.156,0.068l0.157,0.065l0.158,0.064l0.16,0.062l0.16,0.059l0.161,0.058l0.162,0.056l0.163,0.054l0.164,0.052l0.165,0.051l0.165,0.048l0.166,0.046l0.167,0.044l0.169,0.042l0.168,0.04l0.169,0.038l0.171,0.036l0.171,0.034l0.172,0.032l0.172,0.03l0.174,0.028l0.174,0.025l0.175,0.023l0.175,0.022l0.176,0.019l0.177,0.016l0.177,0.015l0.178,0.013l0.179,0.01l0.18,0.008l0.179,0.005l0.181,0.004l0.186,0.001l19.99,0l0.186,-0.001l0.181,-0.004l0.18,-0.005l0.179,-0.008l0.179,-0.01l0.178,-0.013l0.177,-0.015l0.177,-0.016l0.176,-0.019l0.176,-0.022l0.174,-0.023l0.174,-0.025l0.174,-0.028l0.172,-0.03l0.172,-0.032l0.171,-0.034l0.171,-0.036l0.169,-0.038l0.169,-0.04l0.168,-0.042l0.167,-0.044l0.166,-0.046l0.166,-0.048l0.165,-0.051l0.163,-0.052l0.163,-0.054l0.162,-0.056l0.161,-0.058l0.16,-0.059l0.16,-0.062l0.158,-0.064l0.157,-0.065l0.157,-0.068l0.155,-0.069l0.155,-0.071l0.153,-0.073l0.153,-0.074l0.151,-0.077l0.15,-0.078l0.149,-0.08l0.149,-0.082l0.147,-0.083l0.146,-0.085l0.145,-0.087l0.144,-0.089l0.142,-0.09l0.142,-0.092l0.14,-0.093l0.139,-0.096l0.138,-0.097l0.137,-0.098l0.135,-0.1l0.134,-0.102l0.133,-0.103l0.132,-0.105l0.13,-0.106l0.13,-0.108l0.127,-0.109l0.127,-0.111l0.124,-0.112l0.125,-0.114l0.122,-0.116l0.121,-0.117l0.119,-0.118l0.119,-0.119l0.116,-0.121l0.116,-0.123l0.113,-0.123l0.113,-0.125l0.111,-0.127l0.109,-0.128l0.108,-0.129l0.106,-0.13l0.105,-0.132l0.103,-0.133l0.102,-0.134l0.1,-0.136l0.099,-0.136l0.096,-0.138l0.096,-0.139l0.093,-0.141l0.092,-0.141l0.09,-0.143l0.089,-0.143l0.087,-0.145l0.085,-0.146l0.083,-0.147l0.082,-0.149l0.08,-0.149l0.078,-0.15l0.077,-0.152l0.075,-0.152l0.072,-0.153l0.071,-0.155l0.07,-0.155l0.067,-0.157l0.065,-0.157l0.064,-0.158l0.062,-0.16l0.06,-0.16l0.057,-0.161l0.056,-0.162l0.054,-0.163l0.053,-0.164l0.05,-0.164l0.048,-0.166l0.046,-0.166l0.044,-0.167l0.042,-0.168l0.04,-0.169l0.039,-0.17l0.035,-0.17l0.034,-0.171l0.032,-0.172l0.03,-0.173l0.028,-0.172l0.025,-0.175l0.024,-0.174l0.021,-0.176l0.019,-0.176l0.017,-0.177l0.014,-0.177l0.013,-0.178l0.01,-0.179l0.008,-0.179l0.006,-0.18l0.003,-0.181l0.001,-0.181l-0.001,-0.181l-0.003,-0.181l-0.006,-0.18l-0.008,-0.179l-0.01,-0.179l-0.013,-0.178l-0.014,-0.177l-0.017,-0.177l-0.019,-0.176l-0.021,-0.176l-0.024,-0.174l-0.025,-0.174l-0.028,-0.173l-0.03,-0.173l-0.032,-0.172l-0.034,-0.171l-0.035,-0.17l-0.039,-0.17l-0.04,-0.169l-0.042,-0.168l-0.044,-0.167l-0.046,-0.166l-0.048,-0.165l-0.05,-0.165l-0.053,-0.164l-0.054,-0.163l-0.056,-0.162l-0.057,-0.161l-0.06,-0.16l-0.062,-0.16l-0.064,-0.158l-0.065,-0.157l-0.067,-0.157l-0.07,-0.155l-0.071,-0.155l-0.072,-0.153l-0.075,-0.152l-0.077,-0.152l-0.078,-0.15l-0.08,-0.149l-0.081,-0.148l-0.084,-0.148l-0.085,-0.146l-0.087,-0.145l-0.089,-0.144l-0.09,-0.142l-0.092,-0.141l-0.093,-0.141l-0.096,-0.139l-0.096,-0.138l-0.099,-0.136l-0.1,-0.136l-0.102,-0.134l-0.103,-0.133l-0.105,-0.132l-0.106,-0.13l-0.108,-0.129l-0.109,-0.128l-0.111,-0.126l-0.113,-0.126l-0.113,-0.123l-0.116,-0.123l-0.116,-0.121l-0.118,-0.119l-0.12,-0.118l-0.121,-0.117l-0.122,-0.116l-0.124,-0.113l-0.125,-0.113l-0.127,-0.111l-0.128,-0.109l-0.129,-0.108l-0.13,-0.106l-0.132,-0.105l-0.133,-0.103l-0.134,-0.102l-0.135,-0.1l-0.137,-0.098l-0.138,-0.097l-0.139,-0.095l-0.14,-0.094l-0.142,-0.092l-0.142,-0.09l-0.144,-0.089l-0.145,-0.087l-0.146,-0.085l-0.147,-0.083l-0.149,-0.082l-0.149,-0.08l-0.15,-0.078l-0.151,-0.077l-0.153,-0.074l-0.153,-0.073l-0.155,-0.071l-0.155,-0.069l-0.157,-0.068l-0.157,-0.065l-0.158,-0.064l-0.16,-0.062l-0.16,-0.059l-0.161,-0.058l-0.162,-0.056l-0.163,-0.054l-0.164,-0.052l-0.164,-0.051l-0.166,-0.048l-0.166,-0.046l-0.167,-0.044l-0.168,-0.042l-0.169,-0.04l-0.169,-0.038l-0.171,-0.036l-0.171,-0.034l-0.172,-0.032l-0.172,-0.03l-0.173,-0.027l-0.174,-0.026l-0.175,-0.023l-0.176,-0.022l-0.176,-0.019l-0.177,-0.016l-0.177,-0.015l-0.178,-0.012l-0.179,-0.011l-0.179,-0.008l-0.18,-0.005l-0.181,-0.004l-0.186,-0.001l-19.99,0Z" style="fill:#e3e3e3;"/><circle id="knob" cx="17.213" cy="15.712" r="14" style="fill:#fff;"/><path d="M17.394,1.713l0.18,0.004l0.18,0.005l0.179,0.008l0.179,0.01l0.177,0.013l0.178,0.015l0.177,0.016l0.176,0.019l0.175,0.022l0.175,0.023l0.174,0.025l0.173,0.028l0.173,0.03l0.172,0.032l0.171,0.034l0.17,0.036l0.17,0.038l0.169,0.04l0.168,0.042l0.167,0.044l0.167,0.047l0.165,0.048l0.165,0.05l0.164,0.052l0.163,0.054l0.162,0.056l0.162,0.058l0.16,0.06l0.159,0.062l0.159,0.063l0.157,0.066l0.157,0.067l0.155,0.07l0.155,0.071l0.153,0.072l0.153,0.075l0.151,0.077l0.151,0.078l0.149,0.08l0.148,0.082l0.147,0.083l0.146,0.085l0.145,0.087l0.144,0.089l0.143,0.09l0.141,0.092l0.14,0.093l0.139,0.096l0.138,0.096l0.137,0.099l0.135,0.1l0.134,0.101l0.133,0.104l0.132,0.104l0.13,0.107l0.129,0.107l0.128,0.11l0.126,0.111l0.125,0.112l0.124,0.114l0.122,0.115l0.121,0.116l0.12,0.118l0.118,0.12l0.116,0.121l0.115,0.122l0.114,0.124l0.112,0.125l0.111,0.126l0.11,0.128l0.107,0.129l0.107,0.13l0.104,0.132l0.104,0.133l0.101,0.134l0.1,0.135l0.099,0.137l0.096,0.138l0.096,0.139l0.093,0.14l0.092,0.141l0.09,0.143l0.089,0.144l0.087,0.145l0.085,0.146l0.083,0.147l0.082,0.148l0.08,0.149l0.078,0.151l0.077,0.151l0.075,0.153l0.072,0.153l0.071,0.155l0.07,0.155l0.067,0.157l0.066,0.157l0.063,0.159l0.062,0.159l0.06,0.16l0.058,0.162l0.056,0.162l0.054,0.163l0.052,0.164l0.05,0.165l0.048,0.165l0.047,0.167l0.044,0.167l0.042,0.168l0.04,0.169l0.038,0.17l0.036,0.17l0.034,0.171l0.032,0.172l0.03,0.173l0.028,0.173l0.025,0.174l0.023,0.175l0.022,0.175l0.019,0.176l0.016,0.177l0.015,0.178l0.013,0.177l0.01,0.179l0.008,0.179l0.005,0.18l0.004,0.18l0.001,0.181l-0.001,0.181l-0.004,0.18l-0.005,0.18l-0.008,0.179l-0.01,0.179l-0.013,0.178l-0.015,0.177l-0.016,0.177l-0.019,0.176l-0.022,0.175l-0.023,0.175l-0.025,0.174l-0.028,0.173l-0.03,0.173l-0.032,0.172l-0.034,0.171l-0.036,0.17l-0.038,0.17l-0.04,0.169l-0.042,0.168l-0.044,0.167l-0.047,0.167l-0.048,0.165l-0.05,0.165l-0.052,0.164l-0.054,0.163l-0.056,0.162l-0.058,0.162l-0.06,0.16l-0.062,0.159l-0.063,0.159l-0.066,0.157l-0.067,0.157l-0.07,0.155l-0.071,0.155l-0.072,0.153l-0.075,0.153l-0.077,0.151l-0.078,0.151l-0.08,0.149l-0.082,0.148l-0.083,0.147l-0.085,0.146l-0.087,0.145l-0.089,0.144l-0.09,0.143l-0.092,0.141l-0.093,0.14l-0.096,0.139l-0.096,0.138l-0.099,0.137l-0.1,0.135l-0.101,0.134l-0.104,0.133l-0.104,0.132l-0.107,0.13l-0.107,0.129l-0.11,0.128l-0.111,0.126l-0.112,0.125l-0.114,0.124l-0.115,0.122l-0.116,0.121l-0.118,0.12l-0.12,0.118l-0.121,0.116l-0.122,0.116l-0.124,0.113l-0.125,0.113l-0.126,0.11l-0.128,0.11l-0.129,0.107l-0.13,0.107l-0.132,0.104l-0.133,0.104l-0.134,0.101l-0.135,0.1l-0.137,0.099l-0.138,0.096l-0.139,0.096l-0.14,0.093l-0.141,0.092l-0.143,0.09l-0.144,0.089l-0.145,0.087l-0.146,0.085l-0.147,0.084l-0.148,0.081l-0.149,0.08l-0.151,0.078l-0.151,0.077l-0.153,0.075l-0.153,0.072l-0.155,0.072l-0.155,0.069l-0.157,0.067l-0.157,0.066l-0.159,0.063l-0.159,0.062l-0.16,0.06l-0.162,0.058l-0.162,0.056l-0.163,0.054l-0.164,0.052l-0.165,0.05l-0.165,0.049l-0.167,0.046l-0.167,0.044l-0.168,0.042l-0.169,0.04l-0.17,0.038l-0.17,0.036l-0.171,0.034l-0.172,0.032l-0.173,0.03l-0.173,0.028l-0.174,0.025l-0.175,0.023l-0.175,0.022l-0.176,0.019l-0.177,0.017l-0.178,0.014l-0.177,0.013l-0.179,0.01l-0.179,0.008l-0.18,0.005l-0.18,0.004l-0.181,0.001l-0.181,-0.001l-0.18,-0.004l-0.18,-0.005l-0.179,-0.008l-0.179,-0.01l-0.178,-0.013l-0.177,-0.014l-0.177,-0.017l-0.176,-0.019l-0.175,-0.022l-0.175,-0.023l-0.174,-0.025l-0.173,-0.028l-0.173,-0.03l-0.172,-0.032l-0.171,-0.034l-0.17,-0.036l-0.17,-0.038l-0.169,-0.04l-0.168,-0.042l-0.167,-0.044l-0.167,-0.046l-0.166,-0.049l-0.164,-0.05l-0.164,-0.052l-0.163,-0.054l-0.162,-0.056l-0.162,-0.058l-0.16,-0.06l-0.159,-0.062l-0.159,-0.063l-0.157,-0.066l-0.157,-0.067l-0.155,-0.069l-0.155,-0.072l-0.153,-0.072l-0.153,-0.075l-0.151,-0.077l-0.151,-0.078l-0.149,-0.08l-0.148,-0.081l-0.147,-0.084l-0.146,-0.085l-0.145,-0.087l-0.144,-0.089l-0.143,-0.09l-0.141,-0.092l-0.14,-0.093l-0.139,-0.096l-0.138,-0.096l-0.137,-0.099l-0.135,-0.1l-0.134,-0.101l-0.133,-0.104l-0.132,-0.104l-0.13,-0.107l-0.129,-0.107l-0.128,-0.11l-0.126,-0.11l-0.125,-0.113l-0.124,-0.113l-0.122,-0.116l-0.121,-0.116l-0.12,-0.118l-0.118,-0.12l-0.116,-0.121l-0.116,-0.122l-0.113,-0.124l-0.113,-0.125l-0.11,-0.126l-0.11,-0.128l-0.107,-0.129l-0.107,-0.13l-0.104,-0.132l-0.104,-0.133l-0.101,-0.134l-0.1,-0.135l-0.099,-0.137l-0.096,-0.138l-0.096,-0.139l-0.093,-0.14l-0.092,-0.141l-0.09,-0.143l-0.089,-0.144l-0.087,-0.145l-0.085,-0.146l-0.084,-0.147l-0.081,-0.148l-0.08,-0.149l-0.078,-0.151l-0.077,-0.151l-0.075,-0.153l-0.072,-0.153l-0.072,-0.155l-0.069,-0.155l-0.067,-0.157l-0.066,-0.157l-0.063,-0.159l-0.062,-0.159l-0.06,-0.16l-0.058,-0.162l-0.056,-0.162l-0.054,-0.163l-0.052,-0.164l-0.05,-0.165l-0.049,-0.165l-0.046,-0.167l-0.044,-0.167l-0.042,-0.168l-0.04,-0.169l-0.038,-0.17l-0.036,-0.17l-0.034,-0.171l-0.032,-0.172l-0.03,-0.173l-0.028,-0.173l-0.025,-0.174l-0.023,-0.175l-0.022,-0.175l-0.019,-0.176l-0.017,-0.177l-0.014,-0.177l-0.013,-0.178l-0.01,-0.179l-0.008,-0.179l-0.005,-0.18l-0.004,-0.18l-0.001,-0.181l0.001,-0.181l0.004,-0.18l0.005,-0.18l0.008,-0.179l0.01,-0.179l0.013,-0.177l0.014,-0.178l0.017,-0.177l0.019,-0.176l0.022,-0.175l0.023,-0.175l0.025,-0.174l0.028,-0.173l0.03,-0.173l0.032,-0.172l0.034,-0.171l0.036,-0.17l0.038,-0.17l0.04,-0.169l0.042,-0.168l0.044,-0.167l0.046,-0.167l0.049,-0.165l0.05,-0.165l0.052,-0.164l0.054,-0.163l0.056,-0.162l0.058,-0.162l0.06,-0.16l0.062,-0.159l0.063,-0.159l0.066,-0.157l0.067,-0.157l0.069,-0.155l0.072,-0.155l0.072,-0.153l0.075,-0.153l0.077,-0.151l0.078,-0.151l0.08,-0.149l0.081,-0.148l0.084,-0.147l0.085,-0.146l0.087,-0.145l0.089,-0.144l0.09,-0.143l0.092,-0.141l0.093,-0.14l0.096,-0.139l0.096,-0.138l0.099,-0.137l0.1,-0.135l0.101,-0.134l0.104,-0.133l0.104,-0.132l0.107,-0.13l0.107,-0.129l0.11,-0.128l0.11,-0.126l0.113,-0.125l0.113,-0.124l0.116,-0.122l0.116,-0.121l0.118,-0.12l0.12,-0.118l0.121,-0.116l0.122,-0.115l0.124,-0.114l0.125,-0.112l0.126,-0.111l0.128,-0.11l0.129,-0.107l0.13,-0.107l0.132,-0.104l0.133,-0.104l0.134,-0.101l0.135,-0.1l0.137,-0.099l0.138,-0.096l0.139,-0.096l0.14,-0.093l0.141,-0.092l0.143,-0.09l0.144,-0.089l0.145,-0.087l0.146,-0.085l0.147,-0.083l0.148,-0.082l0.149,-0.08l0.151,-0.078l0.151,-0.077l0.153,-0.075l0.153,-0.072l0.155,-0.071l0.155,-0.07l0.157,-0.067l0.157,-0.066l0.159,-0.063l0.159,-0.062l0.16,-0.06l0.162,-0.058l0.162,-0.056l0.163,-0.054l0.164,-0.052l0.164,-0.05l0.166,-0.048l0.167,-0.047l0.167,-0.044l0.168,-0.042l0.169,-0.04l0.17,-0.038l0.17,-0.036l0.171,-0.034l0.172,-0.032l0.173,-0.03l0.173,-0.028l0.174,-0.025l0.175,-0.023l0.175,-0.022l0.176,-0.019l0.177,-0.016l0.177,-0.015l0.178,-0.013l0.179,-0.01l0.179,-0.008l0.18,-0.005l0.18,-0.004l0.181,-0.001l0.181,0.001Zm-0.356,0.5l-0.174,0.003l-0.173,0.006l-0.173,0.008l-0.172,0.009l-0.172,0.012l-0.171,0.015l-0.17,0.016l-0.17,0.018l-0.169,0.021l-0.168,0.022l-0.168,0.025l-0.167,0.026l-0.167,0.029l-0.166,0.031l-0.165,0.033l-0.164,0.034l-0.163,0.037l-0.163,0.039l-0.162,0.04l-0.162,0.043l-0.16,0.044l-0.16,0.047l-0.159,0.048l-0.158,0.051l-0.157,0.052l-0.156,0.054l-0.156,0.056l-0.154,0.057l-0.154,0.06l-0.153,0.061l-0.151,0.063l-0.151,0.065l-0.15,0.067l-0.149,0.069l-0.148,0.07l-0.147,0.072l-0.146,0.074l-0.145,0.075l-0.144,0.077l-0.143,0.079l-0.142,0.08l-0.141,0.083l-0.14,0.083l-0.138,0.086l-0.138,0.087l-0.136,0.088l-0.135,0.091l-0.135,0.092l-0.132,0.093l-0.132,0.095l-0.131,0.096l-0.129,0.098l-0.128,0.1l-0.127,0.101l-0.126,0.102l-0.124,0.104l-0.124,0.106l-0.121,0.106l-0.121,0.109l-0.119,0.11l-0.118,0.111l-0.117,0.112l-0.115,0.114l-0.114,0.115l-0.112,0.117l-0.112,0.118l-0.109,0.119l-0.109,0.121l-0.107,0.122l-0.105,0.123l-0.104,0.124l-0.102,0.126l-0.101,0.127l-0.1,0.128l-0.098,0.129l-0.096,0.131l-0.095,0.132l-0.094,0.133l-0.091,0.134l-0.091,0.135l-0.088,0.136l-0.087,0.138l-0.086,0.138l-0.084,0.14l-0.082,0.141l-0.08,0.142l-0.079,0.143l-0.077,0.144l-0.076,0.145l-0.073,0.146l-0.072,0.147l-0.07,0.148l-0.069,0.149l-0.067,0.15l-0.065,0.151l-0.063,0.151l-0.061,0.153l-0.06,0.154l-0.057,0.154l-0.056,0.156l-0.054,0.156l-0.053,0.157l-0.05,0.158l-0.048,0.159l-0.047,0.16l-0.044,0.16l-0.043,0.162l-0.04,0.162l-0.039,0.162l-0.037,0.164l-0.035,0.164l-0.032,0.165l-0.031,0.166l-0.029,0.167l-0.026,0.167l-0.025,0.168l-0.022,0.168l-0.021,0.169l-0.018,0.17l-0.017,0.17l-0.014,0.171l-0.012,0.172l-0.009,0.172l-0.008,0.173l-0.006,0.174l-0.003,0.173l-0.001,0.175l0.001,0.175l0.003,0.173l0.006,0.174l0.008,0.173l0.009,0.172l0.012,0.172l0.014,0.171l0.017,0.17l0.018,0.17l0.021,0.169l0.022,0.168l0.025,0.168l0.026,0.167l0.029,0.167l0.031,0.166l0.032,0.165l0.035,0.164l0.037,0.164l0.039,0.162l0.04,0.162l0.043,0.162l0.044,0.16l0.047,0.16l0.048,0.159l0.05,0.158l0.053,0.157l0.054,0.156l0.056,0.156l0.057,0.154l0.06,0.154l0.061,0.153l0.063,0.151l0.065,0.151l0.067,0.15l0.069,0.149l0.07,0.148l0.072,0.147l0.074,0.146l0.075,0.145l0.077,0.144l0.079,0.143l0.08,0.142l0.082,0.141l0.084,0.14l0.086,0.138l0.087,0.138l0.088,0.136l0.091,0.135l0.091,0.134l0.094,0.133l0.095,0.132l0.096,0.131l0.098,0.129l0.1,0.128l0.101,0.127l0.102,0.126l0.104,0.124l0.106,0.124l0.106,0.121l0.109,0.121l0.109,0.119l0.112,0.118l0.112,0.117l0.114,0.115l0.115,0.114l0.117,0.112l0.118,0.112l0.119,0.109l0.121,0.109l0.121,0.106l0.124,0.106l0.124,0.104l0.126,0.102l0.127,0.101l0.128,0.1l0.129,0.098l0.131,0.096l0.132,0.095l0.133,0.094l0.134,0.091l0.135,0.091l0.136,0.088l0.138,0.087l0.138,0.086l0.14,0.084l0.141,0.082l0.142,0.08l0.143,0.079l0.144,0.077l0.145,0.076l0.146,0.073l0.147,0.072l0.148,0.07l0.149,0.069l0.15,0.067l0.151,0.065l0.151,0.063l0.153,0.061l0.154,0.06l0.154,0.057l0.156,0.056l0.156,0.054l0.157,0.052l0.158,0.051l0.159,0.048l0.16,0.047l0.16,0.044l0.162,0.043l0.162,0.04l0.162,0.039l0.164,0.037l0.164,0.035l0.165,0.032l0.166,0.031l0.167,0.029l0.167,0.026l0.167,0.025l0.169,0.022l0.169,0.021l0.17,0.018l0.17,0.016l0.172,0.015l0.171,0.012l0.172,0.009l0.173,0.008l0.174,0.006l0.174,0.003l0.174,0.001l0.174,-0.001l0.174,-0.003l0.174,-0.006l0.173,-0.008l0.172,-0.009l0.171,-0.012l0.171,-0.015l0.171,-0.016l0.17,-0.018l0.169,-0.021l0.168,-0.022l0.168,-0.025l0.167,-0.026l0.167,-0.029l0.166,-0.031l0.165,-0.032l0.164,-0.035l0.164,-0.037l0.162,-0.039l0.162,-0.04l0.162,-0.043l0.16,-0.044l0.16,-0.047l0.159,-0.048l0.158,-0.051l0.157,-0.052l0.156,-0.054l0.155,-0.056l0.155,-0.057l0.154,-0.06l0.153,-0.061l0.151,-0.063l0.151,-0.065l0.15,-0.067l0.149,-0.068l0.148,-0.071l0.147,-0.072l0.146,-0.073l0.145,-0.076l0.144,-0.077l0.143,-0.079l0.142,-0.08l0.141,-0.082l0.139,-0.084l0.139,-0.086l0.138,-0.087l0.136,-0.088l0.135,-0.091l0.134,-0.091l0.133,-0.094l0.132,-0.095l0.131,-0.096l0.129,-0.098l0.128,-0.1l0.127,-0.101l0.126,-0.102l0.124,-0.104l0.123,-0.106l0.122,-0.106l0.121,-0.109l0.119,-0.109l0.118,-0.112l0.117,-0.112l0.115,-0.114l0.114,-0.115l0.112,-0.117l0.112,-0.118l0.109,-0.119l0.108,-0.121l0.107,-0.121l0.106,-0.124l0.104,-0.124l0.102,-0.126l0.101,-0.127l0.1,-0.128l0.098,-0.129l0.096,-0.131l0.095,-0.132l0.093,-0.133l0.092,-0.134l0.091,-0.135l0.088,-0.136l0.087,-0.138l0.086,-0.138l0.083,-0.14l0.083,-0.141l0.08,-0.142l0.079,-0.143l0.077,-0.144l0.075,-0.145l0.074,-0.146l0.072,-0.147l0.07,-0.148l0.069,-0.149l0.067,-0.15l0.065,-0.151l0.063,-0.152l0.061,-0.152l0.06,-0.154l0.057,-0.154l0.056,-0.156l0.054,-0.156l0.052,-0.157l0.051,-0.158l0.048,-0.159l0.046,-0.16l0.045,-0.16l0.043,-0.162l0.04,-0.162l0.039,-0.163l0.037,-0.163l0.034,-0.164l0.033,-0.165l0.031,-0.166l0.029,-0.167l0.026,-0.167l0.025,-0.168l0.022,-0.168l0.021,-0.169l0.018,-0.17l0.016,-0.17l0.014,-0.171l0.012,-0.172l0.01,-0.172l0.008,-0.173l0.006,-0.173l0.003,-0.174l0.001,-0.175l-0.001,-0.175l-0.003,-0.173l-0.006,-0.174l-0.008,-0.173l-0.01,-0.172l-0.012,-0.172l-0.014,-0.171l-0.016,-0.17l-0.018,-0.17l-0.021,-0.169l-0.022,-0.168l-0.025,-0.168l-0.026,-0.167l-0.029,-0.167l-0.031,-0.166l-0.033,-0.165l-0.034,-0.164l-0.037,-0.163l-0.039,-0.163l-0.04,-0.162l-0.043,-0.162l-0.044,-0.16l-0.047,-0.16l-0.048,-0.159l-0.051,-0.158l-0.052,-0.157l-0.054,-0.156l-0.056,-0.156l-0.057,-0.154l-0.06,-0.154l-0.061,-0.152l-0.063,-0.152l-0.065,-0.151l-0.067,-0.15l-0.069,-0.149l-0.07,-0.148l-0.072,-0.147l-0.074,-0.146l-0.075,-0.145l-0.077,-0.144l-0.079,-0.143l-0.08,-0.142l-0.083,-0.141l-0.083,-0.14l-0.086,-0.138l-0.087,-0.138l-0.088,-0.136l-0.091,-0.135l-0.092,-0.134l-0.093,-0.133l-0.095,-0.132l-0.096,-0.131l-0.098,-0.129l-0.1,-0.128l-0.101,-0.127l-0.102,-0.126l-0.104,-0.124l-0.106,-0.123l-0.107,-0.122l-0.108,-0.121l-0.109,-0.119l-0.112,-0.118l-0.112,-0.117l-0.114,-0.115l-0.115,-0.114l-0.117,-0.112l-0.118,-0.111l-0.119,-0.11l-0.121,-0.109l-0.122,-0.106l-0.123,-0.106l-0.124,-0.104l-0.126,-0.102l-0.127,-0.101l-0.128,-0.1l-0.129,-0.098l-0.131,-0.096l-0.132,-0.095l-0.133,-0.093l-0.134,-0.092l-0.135,-0.091l-0.136,-0.088l-0.138,-0.087l-0.139,-0.086l-0.139,-0.083l-0.141,-0.083l-0.142,-0.08l-0.143,-0.079l-0.144,-0.077l-0.145,-0.075l-0.146,-0.074l-0.147,-0.072l-0.148,-0.07l-0.149,-0.069l-0.15,-0.067l-0.151,-0.065l-0.152,-0.063l-0.152,-0.061l-0.154,-0.06l-0.154,-0.057l-0.156,-0.056l-0.156,-0.054l-0.157,-0.052l-0.158,-0.051l-0.159,-0.048l-0.16,-0.047l-0.16,-0.044l-0.162,-0.043l-0.162,-0.04l-0.163,-0.039l-0.163,-0.037l-0.164,-0.034l-0.165,-0.033l-0.166,-0.031l-0.167,-0.029l-0.167,-0.026l-0.168,-0.025l-0.168,-0.022l-0.169,-0.021l-0.17,-0.018l-0.17,-0.016l-0.171,-0.015l-0.172,-0.012l-0.172,-0.009l-0.173,-0.008l-0.174,-0.006l-0.174,-0.003l-0.174,-0.001l-0.175,0.001Z" style="fill:#e4e4e4;"/></g></svg>