<svg xmlns="http://www.w3.org/2000/svg" viewBox="0 0 1656.5 282">
    <style>
        .st0{fill:#2c2f31}.st1{fill:#3d8cff}
    </style>
    <g id="Layer_2">
        <path d="M613.6 225.4l-48.5-72 42.4-67.1c.4-.6.4-1.4.1-2-.4-.6-1-1-1.8-1h-25.1c-.7 0-1.3.4-1.7.9l-29.6 46.9-30.8-47c-.4-.6-1-.9-1.7-.9H488c-1.1 0-2 .9-2 2v21.4c0 1.1.9 2 2 2h16l30.6 45.1-45.8 71.7c-.4.6-.4 1.4-.1 2 .4.6 1 1 1.8 1h25.7c.7 0 1.3-.4 1.7-.9l32.1-51.9 34.8 51.9c.4.6 1 .9 1.7.9h25.4c.7 0 1.4-.4 1.8-1.1s.3-1.3-.1-1.9zm124.9 2.5H632.7v-98.8c0-30 15.8-45.2 47-45.2H736v42h-23v-20.2h-32.2c-15.8 0-23.7 8.2-23.7 24.6v75.8h81.5v21.8zm139.2-60.3h-85.3v30c0 5.7 2.8 8.5 8.2 8.5h73.3v21.8h-77c-18.9 0-28.4-9.2-28.4-27.8v-84.9c0-20.8 9.8-31.3 29.7-31.3h48.9c20.2 0 30.3 9.8 30.6 29.7v54zm-85.2-21.5H854v-30c0-6.9-3.8-10.4-11.1-10.4h-38.5c-7.9 0-12 3.8-12 11.7v28.7zm181.2-40.4h-38.8v122.2h-24.6v-144h63.5v21.8zm41.2 0H996V83.9h18.9V39.7h24.3v44.2h37.9v21.8h-37.9V196c0 7.3 3.5 10.7 10.4 10.4h20.2c2.8 0 5.4 0 7.6-.3v21.8h-32.2c-20.2 0-30.3-10.7-30.3-32.2v-90zM422.7 43.9h-50.8c-28.4 0-42.6 12.3-42.6 37.3v112.7c0 25.6 13.9 38.2 41.7 38.2h52.7c27.8 0 41.7-12.6 41.7-38.2V81.2c0-24.9-14.2-37.3-42.7-37.3zm-50.8 22.8h50.8c10.7 0 16.1 4.7 16.1 14.5v2.1l-83 60.7V81.2c0-9.8 5.4-14.5 16.1-14.5zm50.2 142.7h-49.6c-11.1 0-16.7-5.7-16.7-16.7v-16.5l83-60.7v77.1c.1 11.1-5.6 16.8-16.7 16.8zM254.4 13.5h-23.7L110 134.2l17.5 17.5c1.2 1.2 1.2 3.1 0 4.2l-25.6 25.6c-1.2 1.2-3.1 1.2-4.2 0l-44.1-44.1c-2.1-2.1-2-5.4 0-7.4L172.1 13.5h-64.4L126 32.4c1.2 1.2 1.1 3.1-.1 4.3L99.6 61.9c-1.2 1.1-3.1 1.1-4.2 0l-49-48.3H26.9c-4.8 0-8.7 3.9-8.7 8.7v227.5c0 4.8 3.9 8.7 8.7 8.7h22.3l122-122-17.5-17.5c-1.2-1.2-1.2-3.1 0-4.2l25.6-25.6c1.2-1.2 3.1-1.2 4.2 0l44.1 44.1c2.1 2.1 2 5.4 0 7.4l-120 117.8h68.2L157.1 239c-1.2-1.2-1.1-3.1.1-4.3l26.3-25.3c1.2-1.1 3.1-1.1 4.2 0l49.4 48.7 17.3.1c4.8 0 8.7-3.9 8.7-8.7V22.2c-.1-4.8-4-8.7-8.7-8.7z"/>
        <path class="st0" d="M613.6-86.6l-48.5-72 42.4-67.1c.4-.6.4-1.4.1-2-.4-.6-1-1-1.8-1h-25.1c-.7 0-1.3.4-1.7.9l-29.6 46.9-30.8-47c-.4-.6-1-.9-1.7-.9H488c-1.1 0-2 .9-2 2v21.4c0 1.1.9 2 2 2h16l30.6 45.1-45.8 71.7c-.4.6-.4 1.4-.1 2 .4.6 1 1 1.8 1h25.7c.7 0 1.3-.4 1.7-.9l32.1-51.9 34.8 51.9c.4.6 1 .9 1.7.9h25.4c.7 0 1.4-.4 1.8-1.1s.3-1.3-.1-1.9zm124.9 2.5H632.7v-98.8c0-30 15.8-45.2 47-45.2H736v42h-23v-20.2h-32.2c-15.8 0-23.7 8.2-23.7 24.6v75.8h81.5v21.8zm139.2-60.3h-85.3v30c0 5.7 2.8 8.5 8.2 8.5h73.3v21.8h-77c-18.9 0-28.4-9.2-28.4-27.8v-84.9c0-20.8 9.8-31.3 29.7-31.3h48.9c20.2 0 30.3 9.8 30.6 29.7v54zm-85.2-21.5H854v-30c0-6.9-3.8-10.4-11.1-10.4h-38.5c-7.9 0-12 3.8-12 11.7v28.7zm181.2-40.4h-38.8v122.2h-24.6v-144h63.5v21.8zm41.2 0H996v-21.8h18.9v-44.2h24.3v44.2h37.9v21.8h-37.9v90.3c0 7.3 3.5 10.7 10.4 10.4h20.2c2.8 0 5.4 0 7.6-.3v21.8h-32.2c-20.2 0-30.3-10.7-30.3-32.2v-90zM422.7-268h-50.8c-28.4 0-42.6 12.3-42.6 37.3V-118c0 25.6 13.9 38.2 41.7 38.2h52.7c27.8 0 41.7-12.6 41.7-38.2v-112.7c0-25-14.2-37.3-42.7-37.3zm-50.8 22.7h50.8c10.7 0 16.1 4.7 16.1 14.5v2.1l-83 60.7v-62.8c0-9.8 5.4-14.5 16.1-14.5zm50.2 142.7h-49.6c-11.1 0-16.7-5.7-16.7-16.7v-16.5l83-60.7v77.1c.1 11.1-5.6 16.8-16.7 16.8z"/>
        <path class="st1" d="M254.4-298.5h-23.7L110-177.8l17.5 17.5c1.2 1.2 1.2 3.1 0 4.2l-25.6 25.6c-1.2 1.2-3.1 1.2-4.2 0l-44.1-44.1c-2.1-2.1-2-5.4 0-7.4l118.5-116.4h-64.4l18.3 18.8c1.2 1.2 1.1 3.1-.1 4.3L99.6-250c-1.2 1.1-3.1 1.1-4.2 0l-49-48.3H26.9c-4.8 0-8.7 3.9-8.7 8.7v227.5c0 4.8 3.9 8.7 8.7 8.7h22.3l122-122-17.5-17.5c-1.2-1.2-1.2-3.1 0-4.2l25.6-25.6c1.2-1.2 3.1-1.2 4.2 0l44.1 44.1c2.1 2.1 2 5.4 0 7.4l-120 117.8h68.2L157.1-73c-1.2-1.2-1.1-3.1.1-4.3l26.3-25.3c1.2-1.1 3.1-1.1 4.2 0L237-53.8l17.3.1c4.8 0 8.7-3.9 8.7-8.7v-227.5c0-4.7-3.9-8.6-8.6-8.6z"/>
        <path class="st0" d="M1097.1-105.7h63.7c5.4 0 7.9-2.9 7.9-8.2v-22.2c0-5.4-2.9-7.9-8.6-7.9h-38.4c-17.4 0-26-7.9-26-23.8v-32.7c0-18.4 8.9-27.6 26.9-27.9h66.9v40.9H1167v-19h-37.7c-6 0-9.2 3.2-9.2 9.2v22.8c0 5.7 2.2 8.6 6.3 8.6h42.8c16.2 0 24.1 8.6 24.1 25.4v33.3c0 15.5-8.9 23.5-26.6 23.5H1097v-22zm224.5 21.8h-106.2v-99.2c0-30.1 15.8-45.3 47.2-45.3h56.4v42.2h-23.1v-20.3h-32.3c-15.8 0-23.8 8.2-23.8 24.7v76.1h81.8v21.8zm126.7-21.8h17.4v21.9h-91.3c-20.6 0-30.7-9.5-30.7-28.2v-26.6c0-18.1 10.1-27.3 30.7-27.3h49.5v-20.6c0-13.3-6.7-20-19.7-20H1375v17.1h-23.1v-39h52c29.5 0 44.4 13.6 44.4 40.6v82.1zm-24.4 0v-38.7h-47.2c-5.7 0-8.6 2.9-8.6 8.2v21.6c0 6 3.2 8.9 9.2 8.9h46.6zM1573-83.9v-113.5c0-6-3.2-9.2-9.5-9.2h-49.1v122.7h-24.7v-122.7h-15.9v-21.9h95.7c18.7 0 28.2 9.2 28.2 27.9v94.8h15.9v21.9H1573z"/>
        <path d="M1097.1 206.3h63.7c5.4 0 7.9-2.9 7.9-8.2v-22.2c0-5.4-2.9-7.9-8.6-7.9h-38.4c-17.4 0-26-7.9-26-23.8v-32.7c0-18.4 8.9-27.6 26.9-27.9h66.9v40.9H1167v-19h-37.7c-6 0-9.2 3.2-9.2 9.2v22.8c0 5.7 2.2 8.6 6.3 8.6h42.8c16.2 0 24.1 8.6 24.1 25.4v33.3c0 15.5-8.9 23.5-26.6 23.5H1097v-22zm224.5 21.8h-106.2v-99.2c0-30.1 15.8-45.3 47.2-45.3h56.4v42.2h-23.1v-20.3h-32.3c-15.8 0-23.8 8.2-23.8 24.7v76.1h81.8v21.8zm126.7-21.8h17.4v21.9h-91.3c-20.6 0-30.7-9.5-30.7-28.2v-26.6c0-18.1 10.1-27.3 30.7-27.3h49.5v-20.6c0-13.3-6.7-20-19.7-20H1375v17.1h-23.1v-39h52c29.5 0 44.4 13.6 44.4 40.6v82.1zm-24.4 0v-38.7h-47.2c-5.7 0-8.6 2.9-8.6 8.2v21.6c0 6 3.2 8.9 9.2 8.9h46.6zm149.1 21.8V114.6c0-6-3.2-9.2-9.5-9.2h-49.1v122.7h-24.7V105.5h-15.9V83.6h95.7c18.7 0 28.2 9.2 28.2 27.9v94.8h15.9v21.9H1573z"/>
    </g>
</svg>
