<?xml version="1.0" encoding="utf-8"?>
<!-- Generator: Adobe Illustrator 22.1.0, SVG Export Plug-In . SVG Version: 6.00 Build 0)  -->
<svg version="1.1" xmlns="http://www.w3.org/2000/svg" xmlns:xlink="http://www.w3.org/1999/xlink" x="0px" y="0px"
	 viewBox="0 0 1656.5 282" style="enable-background:new 0 0 1656.5 282;" xml:space="preserve">
<style type="text/css">
	.st0{fill:#2C2F31;}
	.st1{fill:#3D8CFF;}
</style>
<g id="Layer_1">
</g>
<g id="Layer_2">
	<g>
		<path d="M613.6,225.4l-48.5-72l42.4-67.1c0.4-0.6,0.4-1.4,0.1-2c-0.4-0.6-1-1-1.8-1h-25.1c-0.7,0-1.3,0.4-1.7,0.9l-29.6,46.9
			l-30.8-47c-0.4-0.6-1-0.9-1.7-0.9H488c-1.1,0-2,0.9-2,2v21.4c0,1.1,0.9,2,2,2h16l30.6,45.1l-45.8,71.7c-0.4,0.6-0.4,1.4-0.1,2
			c0.4,0.6,1,1,1.8,1h25.7c0.7,0,1.3-0.4,1.7-0.9l32.1-51.9l34.8,51.9c0.4,0.6,1,0.9,1.7,0.9h25.4c0.7,0,1.4-0.4,1.8-1.1
			S614,226,613.6,225.4z"/>
		<path d="M738.5,227.9H632.7v-98.8c0-30,15.8-45.2,47-45.2H736v42h-23v-20.2h-32.2c-15.8,0-23.7,8.2-23.7,24.6v75.8h81.5V227.9z"/>
		<path d="M877.7,167.6h-85.3v30c0,5.7,2.8,8.5,8.2,8.5h73.3v21.8h-77c-18.9,0-28.4-9.2-28.4-27.8v-84.9c0-20.8,9.8-31.3,29.7-31.3
			h48.9c20.2,0,30.3,9.8,30.6,29.7V167.6z M792.5,146.1H854v-30c0-6.9-3.8-10.4-11.1-10.4h-38.5c-7.9,0-12,3.8-12,11.7V146.1z"/>
		<path d="M973.7,105.7h-38.8v122.2h-24.6v-144h63.5V105.7z"/>
		<path d="M1014.9,105.7h-18.9V83.9h18.9V39.7h24.3v44.2h37.9v21.8h-37.9V196c0,7.3,3.5,10.7,10.4,10.4h20.2c2.8,0,5.4,0,7.6-0.3
			v21.8h-32.2c-20.2,0-30.3-10.7-30.3-32.2V105.7z"/>
		<path d="M422.7,43.9h-50.8c-28.4,0-42.6,12.3-42.6,37.3v112.7c0,25.6,13.9,38.2,41.7,38.2h52.7c27.8,0,41.7-12.6,41.7-38.2V81.2
			C465.4,56.3,451.2,43.9,422.7,43.9z M371.9,66.7h50.8c10.7,0,16.1,4.7,16.1,14.5v2.1l-83,60.7V81.2
			C355.8,71.4,361.2,66.7,371.9,66.7z M422.1,209.4h-49.6c-11.1,0-16.7-5.7-16.7-16.7v-16.5l83-60.7v77.1
			C438.9,203.7,433.2,209.4,422.1,209.4z"/>
	</g>
	<path d="M254.4,13.5h-23.7L110,134.2l17.5,17.5c1.2,1.2,1.2,3.1,0,4.2l-25.6,25.6c-1.2,1.2-3.1,1.2-4.2,0l-44.1-44.1
		c-2.1-2.1-2-5.4,0-7.4L172.1,13.5h-64.4L126,32.4c1.2,1.2,1.1,3.1-0.1,4.3L99.6,61.9c-1.2,1.1-3.1,1.1-4.2,0l-49-48.3H26.9
		c-4.8,0-8.7,3.9-8.7,8.7v227.5c0,4.8,3.9,8.7,8.7,8.7h22.3l122-122l-17.5-17.5c-1.2-1.2-1.2-3.1,0-4.2l25.6-25.6
		c1.2-1.2,3.1-1.2,4.2,0l44.1,44.1c2.1,2.1,2,5.4,0,7.4l-120,117.8h64.7l3.5,0L157.1,239c-1.2-1.2-1.1-3.1,0.1-4.3l26.3-25.3
		c1.2-1.1,3.1-1.1,4.2,0l49.4,48.7l17.3,0.1c4.8,0,8.7-3.9,8.7-8.7V22.2C263,17.4,259.1,13.5,254.4,13.5z"/>
	<g>
		<path class="st0" d="M613.6-86.6l-48.5-72l42.4-67.1c0.4-0.6,0.4-1.4,0.1-2c-0.4-0.6-1-1-1.8-1h-25.1c-0.7,0-1.3,0.4-1.7,0.9
			l-29.6,46.9l-30.8-47c-0.4-0.6-1-0.9-1.7-0.9H488c-1.1,0-2,0.9-2,2v21.4c0,1.1,0.9,2,2,2h16l30.6,45.1l-45.8,71.7
			c-0.4,0.6-0.4,1.4-0.1,2c0.4,0.6,1,1,1.8,1h25.7c0.7,0,1.3-0.4,1.7-0.9l32.1-51.9l34.8,51.9c0.4,0.6,1,0.9,1.7,0.9h25.4
			c0.7,0,1.4-0.4,1.8-1.1S614-86,613.6-86.6z"/>
		<path class="st0" d="M738.5-84.1H632.7v-98.8c0-30,15.8-45.2,47-45.2H736v42h-23v-20.2h-32.2c-15.8,0-23.7,8.2-23.7,24.6v75.8
			h81.5V-84.1z"/>
		<path class="st0" d="M877.7-144.4h-85.3v30c0,5.7,2.8,8.5,8.2,8.5h73.3v21.8h-77c-18.9,0-28.4-9.2-28.4-27.8v-84.9
			c0-20.8,9.8-31.3,29.7-31.3h48.9c20.2,0,30.3,9.8,30.6,29.7V-144.4z M792.5-165.9H854v-30c0-6.9-3.8-10.4-11.1-10.4h-38.5
			c-7.9,0-12,3.8-12,11.7V-165.9z"/>
		<path class="st0" d="M973.7-206.3h-38.8v122.2h-24.6v-144h63.5V-206.3z"/>
		<path class="st0" d="M1014.9-206.3h-18.9v-21.8h18.9v-44.2h24.3v44.2h37.9v21.8h-37.9v90.3c0,7.3,3.5,10.7,10.4,10.4h20.2
			c2.8,0,5.4,0,7.6-0.3v21.8h-32.2c-20.2,0-30.3-10.7-30.3-32.2V-206.3z"/>
		<path class="st0" d="M422.7-268h-50.8c-28.4,0-42.6,12.3-42.6,37.3v112.7c0,25.6,13.9,38.2,41.7,38.2h52.7
			c27.8,0,41.7-12.6,41.7-38.2v-112.7C465.4-255.7,451.2-268,422.7-268z M371.9-245.3h50.8c10.7,0,16.1,4.7,16.1,14.5v2.1l-83,60.7
			v-62.8C355.8-240.6,361.2-245.3,371.9-245.3z M422.1-102.6h-49.6c-11.1,0-16.7-5.7-16.7-16.7v-16.5l83-60.7v77.1
			C438.9-108.3,433.2-102.6,422.1-102.6z"/>
	</g>
	<path class="st1" d="M254.4-298.5h-23.7L110-177.8l17.5,17.5c1.2,1.2,1.2,3.1,0,4.2l-25.6,25.6c-1.2,1.2-3.1,1.2-4.2,0l-44.1-44.1
		c-2.1-2.1-2-5.4,0-7.4l118.5-116.4h-64.4l18.3,18.8c1.2,1.2,1.1,3.1-0.1,4.3l-26.3,25.3c-1.2,1.1-3.1,1.1-4.2,0l-49-48.3H26.9
		c-4.8,0-8.7,3.9-8.7,8.7v227.5c0,4.8,3.9,8.7,8.7,8.7h22.3l122-122l-17.5-17.5c-1.2-1.2-1.2-3.1,0-4.2l25.6-25.6
		c1.2-1.2,3.1-1.2,4.2,0l44.1,44.1c2.1,2.1,2,5.4,0,7.4l-120,117.8h64.7l3.5,0L157.1-73c-1.2-1.2-1.1-3.1,0.1-4.3l26.3-25.3
		c1.2-1.1,3.1-1.1,4.2,0L237-53.8l17.3,0.1c4.8,0,8.7-3.9,8.7-8.7v-227.5C263-294.6,259.1-298.5,254.4-298.5z"/>
	<path class="st0" d="M1097.1-105.7h63.7c5.4,0,7.9-2.9,7.9-8.2v-22.2c0-5.4-2.9-7.9-8.6-7.9h-38.4c-17.4,0-26-7.9-26-23.8v-32.7
		c0-18.4,8.9-27.6,26.9-27.9h66.9v40.9h-22.5v-19h-37.7c-6,0-9.2,3.2-9.2,9.2v22.8c0,5.7,2.2,8.6,6.3,8.6h42.8
		c16.2,0,24.1,8.6,24.1,25.4v33.3c0,15.5-8.9,23.5-26.6,23.5h-69.7V-105.7z"/>
	<path class="st0" d="M1321.6-83.9h-106.2v-99.2c0-30.1,15.8-45.3,47.2-45.3h56.4v42.2h-23.1v-20.3h-32.3
		c-15.8,0-23.8,8.2-23.8,24.7v76.1h81.8V-83.9z"/>
	<path class="st0" d="M1448.3-105.7h17.4v21.9h-91.3c-20.6,0-30.7-9.5-30.7-28.2v-26.6c0-18.1,10.1-27.3,30.7-27.3h49.5v-20.6
		c0-13.3-6.7-20-19.7-20h-29.2v17.1h-23.1v-39h52c29.5,0,44.4,13.6,44.4,40.6V-105.7z M1423.9-105.7v-38.7h-47.2
		c-5.7,0-8.6,2.9-8.6,8.2v21.6c0,6,3.2,8.9,9.2,8.9H1423.9z"/>
	<path class="st0" d="M1573-83.9v-113.5c0-6-3.2-9.2-9.5-9.2h-49.1v122.7h-24.7v-122.7h-15.9v-21.9h95.7c18.7,0,28.2,9.2,28.2,27.9
		v94.8h15.9v21.9H1573z"/>
	<path d="M1097.1,206.3h63.7c5.4,0,7.9-2.9,7.9-8.2v-22.2c0-5.4-2.9-7.9-8.6-7.9h-38.4c-17.4,0-26-7.9-26-23.8v-32.7
		c0-18.4,8.9-27.6,26.9-27.9h66.9v40.9h-22.5v-19h-37.7c-6,0-9.2,3.2-9.2,9.2v22.8c0,5.7,2.2,8.6,6.3,8.6h42.8
		c16.2,0,24.1,8.6,24.1,25.4v33.3c0,15.5-8.9,23.5-26.6,23.5h-69.7V206.3z"/>
	<path d="M1321.6,228.1h-106.2v-99.2c0-30.1,15.8-45.3,47.2-45.3h56.4v42.2h-23.1v-20.3h-32.3c-15.8,0-23.8,8.2-23.8,24.7v76.1h81.8
		V228.1z"/>
	<path d="M1448.3,206.3h17.4v21.9h-91.3c-20.6,0-30.7-9.5-30.7-28.2v-26.6c0-18.1,10.1-27.3,30.7-27.3h49.5v-20.6
		c0-13.3-6.7-20-19.7-20h-29.2v17.1h-23.1v-39h52c29.5,0,44.4,13.6,44.4,40.6V206.3z M1423.9,206.3v-38.7h-47.2
		c-5.7,0-8.6,2.9-8.6,8.2v21.6c0,6,3.2,8.9,9.2,8.9H1423.9z"/>
	<path d="M1573,228.1V114.6c0-6-3.2-9.2-9.5-9.2h-49.1v122.7h-24.7V105.5h-15.9V83.6h95.7c18.7,0,28.2,9.2,28.2,27.9v94.8h15.9v21.9
		H1573z"/>
</g>
</svg>
